<?xml version="1.0" encoding="utf-8"?>
<svg version="1.1" xmlns:xlink="http://www.w3.org/1999/xlink" width="20px" height="22px" xmlns="http://www.w3.org/2000/svg">
  <g transform="matrix(1 0 0 1 -1016 -29 )">
    <path d="M 1.07142857142857 9.36309523809524  C 1.07142857142857 13.8831349121094  4.40277778552827 17.547619047619  8.51190476190476 17.547619047619  C 12.6210317382812 17.547619047619  15.952380952381 13.8831349121094  15.952380952381 9.36309523809524  C 15.952380952381 4.8430555640811  12.6210317382812 1.17857142857143  8.51190476190476 1.17857142857143  C 4.40277778552827 1.17857142857143  1.07142857142857 4.8430555640811  1.07142857142857 9.36309523809524  Z M 16.9444444521949 9.36309523809524  C 16.9444444521949 14.4860615164621  13.1691468331473 18.6388888974144  8.51190476190476 18.6388888974144  C 3.8546626906622 18.6388888974144  0.079365071614583 14.4860615164621  0.079365071614583 9.36309523809524  C 0.079365071614583 4.24012895972842  3.8546626906622 0.0873015787760417  8.51190476190476 0.0873015787760417  C 13.1691468331473 0.0873015787760417  16.9444444521949 4.24012895972842  16.9444444521949 9.36309523809524  Z M 15.601686500186 17.9333829450335  C 15.5123661479619 17.8316551824366  15.462443792908 17.695751756514  15.462443792908 17.5543230843081  C 15.462443792908 17.2529772433749  15.6845247667044 17.0086881721988  15.9584755311892 17.0086881721988  C 16.0870470513764 17.0086881721988  16.2105956203969 17.0636027627581  16.3030754045759 17.1618551502046  L 19.8105158807664 21.0200396740141  C 19.8998362329906 21.121767436611  19.9497585880445 21.2576708625337  19.9497585880445 21.3990995347396  C 19.9497585880445 21.7004453756729  19.7276776142481 21.944734446849  19.4537268497633 21.944734446849  C 19.3251553295761 21.944734446849  19.2016067605555 21.8898198562896  19.1091269763765 21.791567468843  L 15.601686500186 17.9339285714286  Z " fill-rule="nonzero" fill="#f2f2f2" stroke="none" transform="matrix(1 0 0 1 1016 29 )" />
  </g>
</svg>