<?xml version="1.0" encoding="utf-8"?>
<svg version="1.1" xmlns:xlink="http://www.w3.org/1999/xlink" width="164px" height="118px" xmlns="http://www.w3.org/2000/svg">
  <g transform="matrix(1 0 0 1 -44 -493 )">
    <path d="M 44 493  L 208 493  L 208 611  L 44 611  L 44 493  " fill-rule="nonzero" fill="#cccccc" stroke="none" />
    <path d="M 52 501  L 200 501  L 200 603  L 52 603  L 52 501  " fill-rule="nonzero" fill="#ffffff" stroke="none" />
    <path d="M 138.13 528.4  C 133.174 528.4  129.28 524.506  129.28 519.55  C 129.28 514.594  133.174 510.7  138.13 510.7  C 143.086 510.7  146.98 514.594  146.98 519.55  C 146.98 524.506  143.086 528.4  138.13 528.4  " fill-rule="nonzero" fill="#cccccc" stroke="none" />
    <path d="M 55 600  L 55 547.2  L 90.5 523.2  L 140.2 558.556097560976  L 168.6 537.6  L 197 558.556097560976  L 197 600  L 55 600  " fill-rule="nonzero" fill="#169bd5" stroke="none" />
  </g>
</svg>