<?xml version="1.0" encoding="utf-8"?>
<svg version="1.1" xmlns:xlink="http://www.w3.org/1999/xlink" width="27px" height="27px" xmlns="http://www.w3.org/2000/svg">
  <g transform="matrix(1 0 0 1 -1142 -452 )">
    <path d="M 1155.5 452  C 1163.06 452  1169 457.94  1169 465.5  C 1169 473.06  1163.06 479  1155.5 479  C 1147.94 479  1142 473.06  1142 465.5  C 1142 457.94  1147.94 452  1155.5 452  Z " fill-rule="nonzero" fill="#ffffff" stroke="none" />
    <path d="M 1155.5 452.5  C 1162.78 452.5  1168.5 458.22  1168.5 465.5  C 1168.5 472.78  1162.78 478.5  1155.5 478.5  C 1148.22 478.5  1142.5 472.78  1142.5 465.5  C 1142.5 458.22  1148.22 452.5  1155.5 452.5  Z " stroke-width="1" stroke="#797979" fill="none" />
  </g>
</svg>