<?xml version="1.0" encoding="utf-8"?>
<svg version="1.1" xmlns:xlink="http://www.w3.org/1999/xlink" width="8px" height="11px" xmlns="http://www.w3.org/2000/svg">
  <g transform="matrix(1 0 0 1 -47 -340 )">
    <path d="M 0.05078125 5.42761875196769  C 0.05078125 5.43369715954258  0.0507886904867373 5.43977556280952  0.0508035714285711 5.44585393591772  C 0.0507886904867389 5.45193230902627  0.05078125 5.45801071229286  0.05078125 5.46408911986811  C 0.05078125 8.45465888118919  1.81322032720626 10.8789946776213  3.98729910714286 10.8789946776213  C 6.16137788707945 10.8789946776213  7.92381696428571 8.45465888118919  7.92381696428571 5.46408911986811  C 7.92381696428571 5.45801071229286  7.92380952379898 5.45193230902627  7.92379464285714 5.44585393591772  C 7.92380952379898 5.43977556280952  7.92381696428571 5.43369715954258  7.92381696428571 5.42761875196769  C 7.92381696428571 2.43704899064661  6.16137788707945 0.0127131942145276  3.98729910714286 0.0127131942145276  C 1.81322032720626 0.0127131942145276  0.05078125 2.43704899064661  0.05078125 5.42761875196769  Z " fill-rule="nonzero" fill="#7f7f7f" stroke="none" transform="matrix(1 0 0 1 47 340 )" />
  </g>
</svg>