<?xml version="1.0" encoding="utf-8"?>
<svg version="1.1" xmlns:xlink="http://www.w3.org/1999/xlink" width="20px" height="15px" xmlns="http://www.w3.org/2000/svg">
  <g transform="matrix(1 0 0 1 -41 -338 )">
    <path d="M 19.6129740168539 8.53967633928571  C 18.6142468398876 9.96824776785714  14.7440747893258 14.8888950892857  10 14.8888950892857  C 5.25592521067416 14.8888950892857  1.38577510533708 9.96824776785714  0.387025983146068 8.53967633928571  C 0.0124868328651689 7.90477120535714  0.0124868328651689 7.11110491071429  0.387025983146068 6.47619977678572  C 1.51062148876405 5.04762834821429  5.25592521067416 0.126981026785715  10 0.126981026785715  C 14.7440747893258 0.126981026785715  18.6142248946629 5.04762834821429  19.6129740168539 6.47619977678572  C 19.9875131671348 7.11110491071429  19.9875131671348 7.90477120535714  19.6129740168539 8.53967633928571  Z M 10 2.34921875  C 6.37952071629214 2.34921875  3.13358058286517 6  2.00998507724719 7.42857142857143  C 3.13358058286517 8.85714285714286  6.37952071629213 12.5079241071429  10 12.5079241071429  C 13.6204792837079 12.5079241071429  16.8664194171348 8.85714285714286  17.9900149227528 7.42857142857143  C 16.7415730337079 6  13.6204792837079 2.34921875  10 2.34921875  Z " fill-rule="nonzero" fill="#7f7f7f" stroke="none" transform="matrix(1 0 0 1 41 338 )" />
  </g>
</svg>