<?xml version="1.0" encoding="utf-8"?>
<svg version="1.1" xmlns:xlink="http://www.w3.org/1999/xlink" width="4px" height="10px" xmlns="http://www.w3.org/2000/svg">
  <g transform="matrix(1 0 0 1 -128 -343 )">
    <path d="M 2.52897585449219 1.24689460644531  C 2.79701712988281 1.24689460644531  3.01398302832031 1.0294540234375  3.01398302832031 0.761906432617188  C 3.01398302832031 0.493884157226564  2.79701712988281 0.276424592773438  2.52897585449219 0.276424592773438  C 2.52394426855469 0.276424592773438  2.51988101464844 0.279196718750001  2.51530513183594 0.279196718750001  L 1.35570434960938 0.281911881835939  C 1.3292552734375 0.278285349609376  1.301894828125 0.276424611328126  1.27455336425781 0.276424611328126  C 0.90944990234375 0.276424611328126  0.613611478515625 0.575927548828126  0.613611478515625 0.946518281250002  L 0.607250783203125 8.98676896972656  C 0.607250783203125 9.35692299902344  0.90352591015625 9.64727415234375  1.26910403808594 9.64727415234375  C 1.30466693554688 9.64727415234375  1.33977412988281 9.65270447851563  1.37393197363281 9.64727415234375  L 2.50619131054688 9.64769187402344  C 2.50803306738281 9.64769187402344  2.50894443652344 9.64858426171875  2.51078619335938 9.64858426171875  C 2.51258996875 9.64858426171875  2.51350135644531 9.64769187402344  2.51532411328125 9.64769187402344  L 2.5289948359375 9.64769187402344  L 2.5289948359375 9.64493874804688  C 2.77787809960938 9.6349135390625  2.97754672460938 9.43300443554688  2.97754672460938 9.18180474902344  C 2.97754672460938 8.93020634082031  2.77789708105469 8.72829721875  2.5289948359375 8.71827202832031  L 2.5289948359375 8.71096198242188  L 1.5836447890625 8.71096198242188  L 1.61054954980469 1.24685664355469  L 2.52897585449219 1.246856625  Z " fill-rule="nonzero" fill="#000000" stroke="none" transform="matrix(1 0 0 1 128 343 )" />
  </g>
</svg>