<?xml version="1.0" encoding="utf-8"?>
<svg version="1.1" xmlns:xlink="http://www.w3.org/1999/xlink" width="14px" height="16px" xmlns="http://www.w3.org/2000/svg">
  <g transform="matrix(1 0 0 1 -131 -337 )">
    <path d="M 13.4798811201172 7.74468009667969  C 13.5090073964844 7.34031126074219  13.4187995527344 6.92280333105469  13.1913337792969 6.55177589550781  C 12.8335403632813 5.96832048144531  12.3129703105469 5.73217758984375  11.6830344023438 5.70667786425781  C 11.6501866679688 5.70210196289062  11.6174148964844 5.69938679980469  11.5832000898437 5.69938679980469  L 7.77119262792969 5.68660846484375  C 8.02098726074219 4.96186983007813  8.19236507128906 4.09852519335938  8.19236507128906 3.28716728417969  C 8.19236507128906 2.76114792382813  8.1331062421875 2.2487993046875  8.02459481152344 1.75560867871094  L 8.01549997167969 1.75652006640625  C 7.81810980664063 0.892264023437501  7.05554881445313 0.2477460234375  6.1420971328125 0.2477460234375  C 5.07957751855469 0.2477460234375  4.37075010351563 1.14116628710937  4.37075010351563 2.21688195800781  C 4.37075010351563 2.27703317480469  4.36528181445313 2.33539959765625  4.37075010351563 2.3937470390625  C 4.31515578808594 4.40482552929688  2.67781991503906 6.02209202148438  0.729645767578127 6.24408950585937  L 0.729645767578127 7.2624070859375  L 0.715063657226565 11.3857654511719  L 0.715063657226565 15.6486032431641  L 0.913782931640626 15.6486032431641  L 10.1915955771484 15.6527234414062  L 10.3538785478516 15.6482045029297  C 10.7130390361328 15.649115890625  10.9149671210938 15.5588131025391  11.240862171875 15.34917625  C 11.5504092998047 15.149507625  11.7833433623047 14.8760170605469  11.9364935302734 14.5669825800781  C 11.9784360859375 14.5049896064453  12.0112458574219 14.4357055869141  12.0312392939453 14.359149484375  L 13.4602864052734 7.97032311328125  C 13.4798811201172 7.8951151015625  13.4853114462891 7.81852103613281  13.4798811201172 7.74468009667969  Z M 12.5790938476562 7.53175843359375  L 12.5846570996094 7.53312554296875  L 11.0449150419922 14.3572318017578  L 11.0430732851563 14.3563204140625  C 10.995662421875 14.4702811523438  10.9154228242187 14.5714825371094  10.8042342119141 14.6425703320313  C 10.7267287587891 14.6931710244141  10.64143859375 14.7233035957031  10.5553319667969 14.7346768769531  C 10.5275348183594 14.7310503447266  10.4988072822266 14.7346768769531  10.4696050986328 14.7346768769531  L 1.6184901484375 14.7246516679688  L 1.61530031933594 7.16530689941406  C 3.27266762890625 6.41818244238281  4.48833739257813 5.68704516796875  5.11464676855469 3.94307756542969  C 5.115994859375 3.94353325  5.11696319140625 3.943988953125  5.11827330078125 3.94442565625  C 5.17392456054687 3.77488960253906  5.23542386816406 3.55970849804688  5.27964488378906 3.32907185839844  C 5.38265004394531 2.78754001855469  5.37721973632813 2.25060306152344  5.37721973632813 2.25060306152344  C 5.28560685742188 1.54589584472656  5.85854339648438 1.26784836035156  6.20038762988281 1.26784836035156  C 6.66990130566406 1.28381654296875  7.1330163046875 1.8923349609375  7.1330163046875 2.23875507714844  C 7.1330163046875 2.23875507714844  7.23693285253906 2.75019232714844  7.23784424023438 3.29990761914063  C 7.23873662792969 3.9932225546875  7.15124394726563 4.35469946582031  7.15124394726563 4.35469946582031  L 7.14258581054688 4.35469946582031  C 7.0336186953125 4.92765500488281  6.84173478222656 5.47055391699219  6.57732005761719 5.96830144433594  L 6.58415541894531 5.97466213964844  C 6.54039008789063 6.06401555859375  6.51532708398438 6.16430555566406  6.51532708398438 6.27048158203125  C 6.51532708398438 6.6401419453125  6.86951294921875 6.67390106738281  7.23461641113281 6.67390106738281  L 11.6647687597656 6.678913671875  C 11.6647687597656 6.678913671875  11.9368922519531 6.68755280859375  11.9373479550781 6.68755280859375  L 11.9373479550781 6.689413546875  C 12.1624593242188 6.67756558105469  12.38677325 6.78603903027344  12.5144047109375 6.99389110742188  C 12.6165364648438 7.16118668261719  12.6338527197266 7.35764647851563  12.5790938476562 7.53175843359375  Z " fill-rule="nonzero" fill="#000000" stroke="none" transform="matrix(1 0 0 1 131 337 )" />
  </g>
</svg>