<?xml version="1.0" encoding="utf-8"?>
<svg version="1.1" xmlns:xlink="http://www.w3.org/1999/xlink" width="44px" height="44px" xmlns="http://www.w3.org/2000/svg">
  <g transform="matrix(1 0 0 1 -39 -379 )">
    <path d="M 21.9234464798851 0.197261135057472  C 9.91377963362069 0.197261135057472  0.0876661278735623 10.0233252514368  0.0876661278735623 22.033041487069  C 0.0876661278735623 34.0425601652299  9.91377963362069 43.8685748922414  21.9234958692529 43.8685748922414  C 33.932965158046 43.8685748922414  43.7590292744253 34.0425601652299  43.7590292744253 22.033041487069  C 43.7590292744253 10.023275862069  33.932965158046 0.19726113505747  21.9234958692529 0.19726113505747  Z M 14.1443741020115 16.5739358836207  C 14.1444234913793 13.0257543103448  14.1444234913793 6.74792115660919  22.4692483836207 6.7479211566092  C 30.7941226652299 6.7479211566092  30.7941226652299 13.0258036997126  30.7941226652299 16.5739358836207  C 30.7941226652299 20.1224137931034  27.5187185704023 26.6730738146552  22.4692483836207 26.8093884698276  C 17.5562410201149 26.8093884698276  14.1443741020115 20.2587778376437  14.1443741020115 16.5739358836207  Z M 21.9234958692529 42.640310704023  C 15.6456133261494 42.640310704023  9.91377963362069 39.7742456896552  6.09252424568965 35.2708737428161  C 6.63832614942529 33.9059985632184  7.32073904454023 32.4048087284483  8.27612697557471 31.5860811781609  C 10.3231187140805 29.9482309626437  16.4643902658046 27.218826329023  16.4643902658046 27.218826329023  L 20.2856456537356 34.5884608477012  L 20.9680091594828 32.8142465876437  L 19.876257183908 30.6306438577586  L 22.0598599137931 28.4472386853448  L 24.2434626436782 30.6306438577586  L 23.2880253232759 32.9506600215517  L 23.8340247844828 34.724923670977  L 27.7916936063218 27.4918507543103  C 27.7916936063218 27.4918507543103  33.9329157686781 30.2212059985632  35.9801050646552 31.8590562140805  C 36.9352954382184 32.5412715517241  37.6177083333333 33.769683908046  38.0271461925287 34.8612877155172  C 34.3424030172414 39.6379310344828  28.474057112069 42.640310704023  21.9234464798851 42.640310704023  Z " fill-rule="nonzero" fill="#aaaaaa" stroke="none" transform="matrix(1 0 0 1 39 379 )" />
  </g>
</svg>