<?xml version="1.0" encoding="utf-8"?>
<svg version="1.1" xmlns:xlink="http://www.w3.org/1999/xlink" width="37px" height="36px" xmlns="http://www.w3.org/2000/svg">
  <g transform="matrix(1 0 0 1 -774 -102 )">
    <path d="M 35.80625 35.684375  C 36.29375 35.196875  36.29375 34.5875  35.80625 34.221875  L 27.03125 25.56875  C 29.346875 23.009375  30.6875 19.596875  30.6875 15.81875  C 30.6875 7.53125  23.984375 0.949999999999998  15.81875 0.949999999999998  C 7.53125 0.949999999999998  0.950000000000002 7.653125  0.950000000000002 15.81875  C 0.950000000000002 24.10625  7.653125 30.6875  15.81875 30.6875  C 19.596875 30.6875  23.009375 29.346875  25.56875 27.03125  L 34.34375 35.684375  C 34.709375 36.05  35.440625 36.05  35.80625 35.684375  Z M 15.940625 28.615625  C 8.75 28.7375  2.9 22.8875  2.9 15.81875  C 2.9 8.75  8.628125 2.9  15.81875 2.9  C 23.009375 2.9  28.7375 8.628125  28.7375 15.81875  C 28.7375 19.23125  27.396875 22.4  25.203125 24.715625  C 25.08125 24.715625  25.08125 24.8375  24.959375 24.8375  C 24.8375 24.959375  24.8375 24.959375  24.8375 25.08125  C 22.521875 27.275  19.353125 28.615625  15.940625 28.615625  Z " fill-rule="nonzero" fill="#aaaaaa" stroke="none" transform="matrix(1 0 0 1 774 102 )" />
  </g>
</svg>