<?xml version="1.0" encoding="utf-8"?>
<svg version="1.1" xmlns:xlink="http://www.w3.org/1999/xlink" width="285px" height="170px" xmlns="http://www.w3.org/2000/svg">
  <g transform="matrix(1 0 0 1 -906 -103 )">
    <path d="M 906 103  L 1191 103  L 1191 273  L 906 273  L 906 103  " fill-rule="nonzero" fill="#cccccc" stroke="none" />
    <path d="M 918 115  L 1179 115  L 1179 261  L 918 261  L 918 115  " fill-rule="nonzero" fill="#ffffff" stroke="none" />
    <path d="M 1066.95 154  C 1059.81 154  1054.2 148.39  1054.2 141.25  C 1054.2 134.11  1059.81 128.5  1066.95 128.5  C 1074.09 128.5  1079.7 134.11  1079.7 141.25  C 1079.7 148.39  1074.09 154  1066.95 154  " fill-rule="nonzero" fill="#cccccc" stroke="none" />
    <path d="M 923 257  L 923 181.65  L 986 147.4  L 1074.2 207.968421052632  L 1124.6 167.95  L 1175 207.968421052632  L 1175 257  L 923 257  " fill-rule="nonzero" fill="#169bd5" stroke="none" />
  </g>
</svg>