<?xml version="1.0" encoding="utf-8"?>
<svg version="1.1" xmlns:xlink="http://www.w3.org/1999/xlink" width="230px" height="170px" xmlns="http://www.w3.org/2000/svg">
  <g transform="matrix(1 0 0 1 -659 -103 )">
    <path d="M 659 103  L 889 103  L 889 273  L 659 273  L 659 103  " fill-rule="nonzero" fill="#cccccc" stroke="none" />
    <path d="M 671 115  L 877 115  L 877 261  L 671 261  L 671 115  " fill-rule="nonzero" fill="#ffffff" stroke="none" />
    <path d="M 791.35 154  C 784.21 154  778.6 148.39  778.6 141.25  C 778.6 134.11  784.21 128.5  791.35 128.5  C 798.49 128.5  804.1 134.11  804.1 141.25  C 804.1 148.39  798.49 154  791.35 154  " fill-rule="nonzero" fill="#cccccc" stroke="none" />
    <path d="M 676 257  L 676 181.65  L 725.25 147.4  L 794.2 196.24347826087  L 833.6 167.95  L 873 196.24347826087  L 873 257  L 676 257  " fill-rule="nonzero" fill="#169bd5" stroke="none" />
  </g>
</svg>